<?xml version="1.0" encoding="UTF-8"?>
<svg width="40px" height="31px" viewBox="0 0 40 31" version="1.1" xmlns="http://www.w3.org/2000/svg" xmlns:xlink="http://www.w3.org/1999/xlink">
    <!-- Generator: Sketch 51.3 (57544) - http://www.bohemiancoding.com/sketch -->
    <title>Rectangle 11</title>
    <desc>Created with Sketch.</desc>
    <defs>
        <path d="M20.119403,20.9552239 C22.0647642,20.9552239 23.641791,19.3514678 23.641791,17.3731343 C23.641791,15.3948009 22.0647642,13.7910448 20.119403,13.7910448 C18.1740418,13.7910448 16.5970149,15.3948009 16.5970149,17.3731343 C16.5970149,19.3514678 18.1740418,20.9552239 20.119403,20.9552239 Z M35.1641791,6.08955224 L30.5074627,6.08955224 C30.0298507,6.08955224 29.6119403,5.85074627 29.3731343,5.37313433 L27.9402985,2.50746269 C27.3432836,1.25373134 26.0895522,0.47761194 24.6567164,0.47761194 L15.4626866,0.47761194 C14.0895522,0.47761194 12.8358209,1.25373134 12.1791045,2.50746269 L10.3880597,6.08955224 L5.01492537,6.08955224 C2.32835821,6.08955224 0.179104478,8.23880597 0.179104478,10.9253731 L0.179104478,25.6716418 C0.179104478,28.358209 2.32835821,30.5074627 5.01492537,30.5074627 L35.1641791,30.5074627 C37.8507463,30.5074627 40,28.358209 40,25.6716418 L40,10.9850746 C40,8.29850746 37.8507463,6.08955224 35.1641791,6.08955224 Z M28.5373134,17.3731343 C28.5373134,22.2089552 24.7761194,26.0895522 20.0597015,26.0895522 C15.3432836,26.0895522 11.5820896,22.1492537 11.5820896,17.3731343 C11.5820896,12.5373134 15.3432836,8.65671642 20.0597015,8.65671642 C24.7761194,8.65671642 28.5373134,12.5373134 28.5373134,17.3731343 Z" id="path-1"></path>
    </defs>
    <g id="V5" stroke="none" stroke-width="1" fill="none" fill-rule="evenodd">
        <g id="Questions---1" transform="translate(-160.000000, -332.000000)">
            <g id="Group-4" transform="translate(102.000000, 291.000000)">
                <g id="Rectangle-11" transform="translate(58.000000, 41.000000)">
                    <mask id="mask-2" fill="white">
                        <use xlink:href="#path-1"></use>
                    </mask>
                    <use id="Mask" fill="#12C3F4" fill-rule="nonzero" xlink:href="#path-1"></use>
                    <rect fill="#000000" opacity="0.05" mask="url(#mask-2)" x="-9" y="17" width="60" height="19"></rect>
                </g>
            </g>
        </g>
    </g>
</svg>