<?xml version="1.0" encoding="UTF-8"?>
<svg width="32px" height="33px" viewBox="0 0 32 33" version="1.1" xmlns="http://www.w3.org/2000/svg" xmlns:xlink="http://www.w3.org/1999/xlink">
    <!-- Generator: Sketch 51.3 (57544) - http://www.bohemiancoding.com/sketch -->
    <title>Rectangle 12</title>
    <desc>Created with Sketch.</desc>
    <defs>
        <path d="M8.32533962,32.7652642 C6.12430189,32.7652642 4.06086792,31.9134906 2.51484906,30.3668491 C0.968830189,28.8202075 0.116433962,26.7573962 0.116433962,24.5563585 C0.116433962,22.3559434 0.968207547,20.2925094 2.51484906,18.7464906 L19.5092264,1.75211321 C21.9406415,-0.678056604 25.7188302,-0.56909434 28.2971887,2.00926415 C30.8755472,4.58762264 30.9863774,8.36518868 28.5549623,10.7972264 L12.5898113,26.7623774 C11.0911132,28.2610755 8.65035849,28.263566 7.14916981,26.7623774 C5.64922642,25.2618113 5.64984906,22.8210566 7.14916981,21.3217358 L17.9638302,10.5070755 C18.3286981,10.1422075 18.9195849,10.1422075 19.2844528,10.5070755 C19.6493208,10.8719434 19.6493208,11.4628302 19.2844528,11.8276981 L8.46979245,22.6423585 C7.69833962,23.4138113 7.69833962,24.6696792 8.46979245,25.4417547 C9.24249057,26.2132075 10.4977358,26.2119623 11.2691887,25.4417547 L27.2343396,9.47660377 C28.9123585,7.79796226 28.8021509,5.1554717 26.976566,3.32988679 C25.1509811,1.50430189 22.5084906,1.39409434 20.8298491,3.07273585 L3.8354717,20.0671132 C2.64186792,21.260717 1.98435849,22.8553019 1.98435849,24.5563585 C1.98435849,26.2580377 2.64186792,27.8526226 3.8354717,29.0462264 C5.02907547,30.2398302 6.62366038,30.8973396 8.32533962,30.8973396 C10.0263962,30.8973396 11.6209811,30.2398302 12.8145849,29.0462264 L29.8089623,12.0518491 C30.1738302,11.6869811 30.764717,11.6869811 31.1295849,12.0518491 C31.4944528,12.416717 31.4944528,13.0076038 31.1295849,13.3724717 L14.1352075,30.3668491 C12.5891887,31.9128679 10.5257547,32.7652642 8.32533962,32.7652642 Z" id="path-1"></path>
    </defs>
    <g id="V5" stroke="none" stroke-width="1" fill="none" fill-rule="evenodd">
        <g id="Questions---5" transform="translate(-164.000000, -323.000000)">
            <g id="Group-3" transform="translate(102.000000, 286.000000)">
                <g id="Rectangle-12" transform="translate(62.000000, 37.000000)">
                    <mask id="mask-2" fill="white">
                        <use xlink:href="#path-1"></use>
                    </mask>
                    <use id="Mask" fill="#12C3F4" fill-rule="nonzero" xlink:href="#path-1"></use>
                    <rect fill="#000000" opacity="0.07" mask="url(#mask-2)" x="-6.8490566" y="14.3207547" width="42.9622642" height="26.7735849"></rect>
                </g>
            </g>
        </g>
    </g>
</svg>