<?xml version="1.0" encoding="UTF-8"?>
<svg width="17px" height="15px" viewBox="0 0 17 15" version="1.1" xmlns="http://www.w3.org/2000/svg" xmlns:xlink="http://www.w3.org/1999/xlink">
    <!-- Generator: Sketch 51.3 (57544) - http://www.bohemiancoding.com/sketch -->
    <title>Shape</title>
    <desc>Created with Sketch.</desc>
    <defs></defs>
    <g id="V5" stroke="none" stroke-width="1" fill="none" fill-rule="evenodd">
        <g id="My-Activities-Copy" transform="translate(-172.000000, -600.000000)" fill="#12C3F4" fill-rule="nonzero">
            <g id="Group-25" transform="translate(0.000000, 590.000000)">
                <path d="M188.162963,15.4661722 C188.153814,14.910816 187.846972,14.4009516 187.354815,14.1233095 L180.243111,10.0552255 C180.116053,9.98159151 179.958014,9.98159151 179.830955,10.0552255 L172.808148,14.1233095 C172.31599,14.4009516 172.009149,14.910816 172,15.4661722 L172,23.3653645 C172,24.2378852 172.72364,24.945203 173.616296,24.945203 L186.546666,24.945203 C187.439322,24.945203 188.162963,24.2378852 188.162963,23.3653645 L188.162963,15.4661722 Z M179.871363,19.2814821 L173.971881,15.6873496 C173.84921,15.6162025 173.774004,15.4871081 173.774004,15.3476843 C173.774004,15.2082606 173.84921,15.0791662 173.971881,15.0080191 L179.863281,11.6350639 C179.99034,11.56143 180.148379,11.56143 180.275437,11.6350639 L186.166837,15.0080191 C186.289508,15.0791662 186.364714,15.2082606 186.364714,15.3476843 C186.364714,15.4871081 186.289508,15.6162025 186.166837,15.6873496 L180.275437,19.2893813 C180.148976,19.3575064 179.994935,19.3544951 179.871363,19.2814821 Z" id="Shape"></path>
            </g>
        </g>
    </g>
</svg>