<?xml version="1.0" encoding="UTF-8"?>
<svg width="8px" height="14px" viewBox="0 0 8 14" version="1.1" xmlns="http://www.w3.org/2000/svg" xmlns:xlink="http://www.w3.org/1999/xlink">
    <!-- Generator: Sketch 51.3 (57544) - http://www.bohemiancoding.com/sketch -->
    <title>Shape</title>
    <desc>Created with Sketch.</desc>
    <defs></defs>
    <g id="V5" stroke="none" stroke-width="1" fill="none" fill-rule="evenodd">
        <g id="My-Activities----introduction" transform="translate(-31.000000, -594.000000)" fill="#12C3F4" fill-rule="nonzero">
            <g id="Group-15" transform="translate(16.000000, 523.000000)">
                <path d="M22.0029283,79.5232703 C21.9370451,79.2943139 21.8571107,79.0950477 21.7632318,78.9258273 C21.6694062,78.7564428 21.5350268,78.5912176 21.3598271,78.4296046 C21.1848406,78.2680736 21.0274248,78.1379841 20.8878462,78.0390898 C20.7483476,77.9401134 20.5567237,77.8294525 20.3130811,77.7069703 C20.0696518,77.5845154 19.8767748,77.4933925 19.7347966,77.4334649 C19.5926317,77.3736193 19.3869833,77.2915814 19.1179846,77.1874058 C18.8794879,77.0937107 18.7019152,77.0220712 18.5850798,76.9726241 C18.4683777,76.9231222 18.3149079,76.8528509 18.1245905,76.7616459 C17.934353,76.6705778 17.7922415,76.5897986 17.6983359,76.5195273 C17.604457,76.449256 17.504259,76.3633323 17.3976621,76.2617837 C17.2910651,76.1602351 17.2162233,76.0521464 17.1730566,75.9375724 C17.1299965,75.8229711 17.1083998,75.697944 17.1083998,75.5625184 C17.1083998,75.2084254 17.2605898,74.9192677 17.5650764,74.6953737 C17.8695896,74.4714796 18.2629426,74.3594779 18.7450819,74.3594779 C18.9581158,74.3594779 19.1753091,74.389387 19.3959153,74.449342 C19.6165214,74.509297 19.8055857,74.5768319 19.9629216,74.6524119 C20.1203907,74.7279918 20.2687679,74.8113433 20.4083732,74.9024387 C20.5479517,74.9936163 20.6468699,75.0625742 20.7052876,75.1094491 C20.7636519,75.1563513 20.8006329,75.1875739 20.8156973,75.2032262 C20.8817671,75.2553004 20.9501033,75.2734976 21.0211591,75.2579273 C21.0972541,75.2527281 21.1556718,75.2109977 21.1963588,75.1329549 L21.8130642,73.9923048 C21.8739348,73.8881839 21.8613501,73.7892076 21.7750167,73.695403 C21.7445147,73.6641531 21.7066005,73.6277313 21.6606076,73.5860282 C21.6150679,73.5443251 21.5160698,73.4688273 21.3636932,73.3593978 C21.2114765,73.2500503 21.0503546,73.1523874 20.8804607,73.0664364 C20.7103801,72.9805675 20.4895607,72.8932756 20.2180291,72.8047797 C19.9466574,72.716147 19.6661938,72.6563015 19.3768515,72.6250789 L19.3768515,71.2499995 C19.3768515,71.1771286 19.354055,71.117201 19.3085154,71.0702987 C19.262869,71.0235059 19.204478,71 19.1333156,71 L18.10558,71 C18.0396168,71 17.9825323,71.0247099 17.9343263,71.0742118 C17.8861204,71.1237136 17.8620174,71.1822731 17.8620174,71.2499995 L17.8620174,72.6562741 C17.0652331,72.8124691 16.4181858,73.161445 15.9208488,73.7031197 C15.4235652,74.2448218 15.17483,74.8749377 15.17483,75.5937684 C15.17483,75.8072914 15.19648,76.010416 15.2396201,76.2030327 C15.2827068,76.3958137 15.3360319,76.5690018 15.3994889,76.7226245 C15.4628925,76.8763567 15.553012,77.0273525 15.669714,77.1758307 C15.7864161,77.3242543 15.8968258,77.451881 16.0008365,77.5586015 C16.1049006,77.6652945 16.2406664,77.7760102 16.4080807,77.8905568 C16.5756016,78.0052129 16.7189663,78.0977313 16.8382546,78.1680026 C16.9575696,78.238055 17.116132,78.3190531 17.3139949,78.4099844 C17.5119112,78.5011894 17.6680206,78.5701198 17.7822164,78.6171042 C17.8964122,78.6639244 18.0524415,78.729106 18.2504378,78.8122658 C18.5244491,78.9216406 18.7274846,79.0063055 18.859411,79.0662331 C18.991444,79.1261608 19.1588583,79.2094848 19.3619738,79.31626 C19.5649027,79.4229257 19.7132799,79.520616 19.8072388,79.609194 C19.9011177,79.697772 19.9860913,79.8071468 20.0622663,79.9373183 C20.1384413,80.0674899 20.1765954,80.2055151 20.1765954,80.3514211 C20.1765954,80.7628969 20.0205394,81.0805407 19.7083473,81.3043253 C19.3962885,81.5283562 19.0345841,81.6403306 18.6235805,81.6403306 C18.4359827,81.6403306 18.2480648,81.6196158 18.0603603,81.5779675 C17.4006216,81.4423778 16.7840496,81.116853 16.210591,80.6012564 L16.1953667,80.5856314 C16.149667,80.5284949 16.088743,80.5050164 16.0127014,80.5154969 C15.9314872,80.5258953 15.8730961,80.5571727 15.8376083,80.6093562 L15.0535153,81.6639732 C14.977367,81.7681215 14.9825129,81.8748693 15.0687663,81.9842441 C15.0941757,82.0155214 15.1385689,82.0625057 15.2019725,82.1248962 C15.2655361,82.1875329 15.3835446,82.2850316 15.5559982,82.4181038 C15.728505,82.5509844 15.9162895,82.67582 16.119325,82.7931578 C16.3223338,82.910304 16.579841,83.0261367 16.8920064,83.1407655 C17.2041718,83.2552026 17.5276155,83.3358997 17.8625774,83.3827473 L17.8625774,84.7499458 C17.8625774,84.8177543 17.886707,84.8762864 17.9348863,84.9258156 C17.9831189,84.9753722 18.0401768,85 18.10614,85 L19.1338755,85 C19.2050379,85 19.2634289,84.9766036 19.3090486,84.9297834 C19.3546683,84.8829632 19.3773848,84.8230356 19.3773848,84.7499731 L19.3773848,83.3827746 C20.1844342,83.2473765 20.8403602,82.8918879 21.3452427,82.3163362 C21.8501785,81.7407846 22.1027264,81.0545721 22.1027264,80.2577534 C22.1024597,79.9973828 22.0695314,79.7525825 22.0029283,79.5232703 Z" id="Shape"></path>
            </g>
        </g>
    </g>
</svg>