<?xml version="1.0" encoding="UTF-8"?>
<svg width="16px" height="13px" viewBox="0 0 16 13" version="1.1" xmlns="http://www.w3.org/2000/svg" xmlns:xlink="http://www.w3.org/1999/xlink">
    <!-- Generator: Sketch 51.3 (57544) - http://www.bohemiancoding.com/sketch -->
    <title>Shape</title>
    <desc>Created with Sketch.</desc>
    <defs></defs>
    <g id="V5" stroke="none" stroke-width="1" fill="none" fill-rule="evenodd">
        <g id="Signup" transform="translate(-62.000000, -216.000000)" fill="#12C3F4" fill-rule="nonzero">
            <g id="Group-6" transform="translate(62.000000, 214.000000)">
                <g id="noun_Email_1198091" transform="translate(0.000000, 2.000000)">
                    <path d="M16,5.2128 C16,7.2192 15.9776,9.2256 16,11.2304 C15.9820988,12.0321253 15.3345959,12.6768038 14.5328,12.6912 C10.8048,12.6912 7.07733333,12.6912 3.3504,12.6912 L1.4512,12.6912 C1.06321038,12.6886651 0.69216842,12.5318808 0.419921654,12.2554318 C0.147674888,11.9789827 -0.00340804292,11.6055829 -1.57981809e-16,11.2176 C-1.57981809e-16,9.6 -1.57981809e-16,7.9888 -1.57981809e-16,6.3808 C-1.57981809e-16,5.6464 -1.57981809e-16,4.92 -5.64304088e-05,4.1408 C0.6592,4.8656 1.472,5.2944 2.2112,5.8192 C3.4752,6.72 4.7472,7.5968 6.0112,8.4976 C6.40831087,8.7743329 6.8446128,8.99005697 7.3056,9.1376 C7.77169673,9.28330053 8.27203363,9.27713737 8.7344,9.12 C9.22848696,8.95438641 9.69338913,8.71194613 10.112,8.4016 C11.7584,7.2496 13.4128,6.1088 15.064,4.9536 C15.3872,4.728 15.68,4.4608 16,4.2016 C16,4.5344 16,4.8736 16,5.2128 Z M15.6048,2.8336 C15.2647155,3.34155545 14.8268645,3.77668693 14.3168,4.1136 C12.8384,5.1328 11.36,6.1536 9.8896,7.1872 C9.4821107,7.49915151 9.0428859,7.76729852 8.5792,7.9872 C8.20510692,8.16650719 7.76857519,8.15999179 7.4,7.9696 C6.99339884,7.75544072 6.59966093,7.51770209 6.2208,7.2576 C4.96426667,6.39893333 3.71253333,5.53066667 2.4656,4.6528 C1.912,4.2624 1.32,3.9152 0.8656,3.4064 C0.5296,3.0368 0.2256,2.6464 0.0848,2.1552 C0.00186788235,1.88203353 -0.0156707624,1.59319397 0.0336,1.312 C0.0922107916,1.02758997 0.220283158,0.762100901 0.4064,0.5392 C0.618087855,0.273512342 0.940306147,0.120075061 1.28,0.1232 C2.2208,0.1104 3.16,0.1104 4.1008,0.1088 L7.9824,0.1088 L14.512,0.1088 C15.2254812,0.0873198211 15.8470178,0.591765186 15.9728,1.2944 C15.9728,1.3072 15.9728,1.32 15.9728,1.3312 C16.0396494,1.86024804 15.9085843,2.39533553 15.6048,2.8336 Z" id="Shape"></path>
                </g>
            </g>
        </g>
    </g>
</svg>