<?xml version="1.0" encoding="UTF-8"?>
<svg width="9px" height="14px" viewBox="0 0 9 14" version="1.1" xmlns="http://www.w3.org/2000/svg" xmlns:xlink="http://www.w3.org/1999/xlink">
    <!-- Generator: Sketch 51.3 (57544) - http://www.bohemiancoding.com/sketch -->
    <title>Shape</title>
    <desc>Created with Sketch.</desc>
    <defs></defs>
    <g id="V5" stroke="none" stroke-width="1" fill="none" fill-rule="evenodd">
        <g id="My-Activities----introduction" transform="translate(-30.000000, -538.000000)" fill="#12C3F4" fill-rule="nonzero">
            <g id="Group-15" transform="translate(16.000000, 523.000000)">
                <path d="M18.5,15 C16.0186866,15 14,17.2745106 14,20.0702484 C14,23.5398463 18.0270592,28.633419 18.1985148,28.8485598 C18.3595593,29.0506577 18.6407319,29.0503023 18.8014852,28.8485598 C18.9729408,28.633419 23,23.5398463 23,20.0702484 C22.9999515,17.2745106 20.9812891,15 18.5,15 Z M18.5,22.6212319 C17.2515896,22.6212319 16.2359608,21.4768673 16.2359608,20.0702484 C16.2359608,18.6636295 17.2516138,17.5192921 18.5,17.5192921 C19.7483862,17.5192921 20.7640149,18.6636568 20.7640149,20.0702757 C20.7640149,21.4768946 19.7483862,22.6212319 18.5,22.6212319 Z" id="Shape"></path>
            </g>
        </g>
    </g>
</svg>