<?xml version="1.0" encoding="UTF-8"?>
<svg width="17px" height="18px" viewBox="0 0 17 18" version="1.1" xmlns="http://www.w3.org/2000/svg" xmlns:xlink="http://www.w3.org/1999/xlink">
    <!-- Generator: Sketch 51.3 (57544) - http://www.bohemiancoding.com/sketch -->
    <title>Shape</title>
    <desc>Created with Sketch.</desc>
    <defs></defs>
    <g id="V5" stroke="none" stroke-width="1" fill="none" fill-rule="evenodd">
        <g id="My-Activities-Copy" transform="translate(-292.000000, -606.000000)" fill="#9B9B9B" fill-rule="nonzero">
            <g id="Group-25" transform="translate(0.000000, 590.000000)">
                <path d="M306.498392,34 C307.540193,34 308.379421,33.1607717 308.379421,32.1189711 L308.379421,17.8810289 C308.379421,16.8392283 307.540193,16 306.498392,16 L295.617363,16 C293.620579,16 292,17.6205788 292,19.6173633 L292,30.3826367 C292,32.3794212 293.620579,34 295.617363,34 L306.498392,34 Z M305.340836,17.4469453 L306.498392,17.4469453 C306.729904,17.4469453 306.932476,17.6495177 306.932476,17.8810289 L306.932476,32.1189711 C306.932476,32.3504823 306.729904,32.5530547 306.498392,32.5530547 L305.340836,32.5530547 L305.340836,17.4469453 Z M295.848875,20.3697749 L301.347267,20.3697749 C301.752412,20.3697749 302.07074,20.6881029 302.07074,21.0932476 C302.07074,21.4983923 301.752412,21.8167203 301.347267,21.8167203 L295.848875,21.8167203 C295.44373,21.8167203 295.125402,21.4983923 295.125402,21.0932476 C295.125402,20.6881029 295.44373,20.3697749 295.848875,20.3697749 Z M295.125402,23.9871383 C295.125402,23.5819936 295.44373,23.2636656 295.848875,23.2636656 L301.347267,23.2636656 C301.752412,23.2636656 302.07074,23.5819936 302.07074,23.9871383 C302.07074,24.392283 301.752412,24.7106109 301.347267,24.7106109 L295.848875,24.7106109 C295.44373,24.7106109 295.125402,24.392283 295.125402,23.9871383 Z" id="Shape" transform="translate(300.189711, 25.000000) scale(-1, 1) translate(-300.189711, -25.000000) "></path>
            </g>
        </g>
    </g>
</svg>