<?xml version="1.0" encoding="utf-8"?>
<!-- Generator: Adobe Illustrator 21.1.0, SVG Export Plug-In . SVG Version: 6.00 Build 0)  -->
<svg version="1.1" id="Layer_1" xmlns="http://www.w3.org/2000/svg" xmlns:xlink="http://www.w3.org/1999/xlink" x="0px" y="0px"
	 viewBox="0 0 17 18" style="enable-background:new 0 0 17 18;" xml:space="preserve">
<style type="text/css">
	.st0{fill:#12C3F4;}
</style>
<title>Shape</title>
<desc>Created with Sketch.</desc>
<g id="V5">
	<g id="My-Activities-Copy" transform="translate(-292.000000, -606.000000)">
		<g id="Group-25" transform="translate(0.000000, 590.000000)">
			<path id="Shape" class="st0" d="M293.9,34c-1,0-1.9-0.8-1.9-1.9V17.9c0-1,0.8-1.9,1.9-1.9h10.9c2,0,3.6,1.6,3.6,3.6v10.8
				c0,2-1.6,3.6-3.6,3.6H293.9z M295,17.4h-1.2c-0.2,0-0.4,0.2-0.4,0.4v14.2c0,0.2,0.2,0.4,0.4,0.4h1.2V17.4z M304.5,20.4H299
				c-0.4,0-0.7,0.3-0.7,0.7c0,0.4,0.3,0.7,0.7,0.7h5.5c0.4,0,0.7-0.3,0.7-0.7C305.3,20.7,304.9,20.4,304.5,20.4z M305.3,24
				c0-0.4-0.3-0.7-0.7-0.7H299c-0.4,0-0.7,0.3-0.7,0.7c0,0.4,0.3,0.7,0.7,0.7h5.5C304.9,24.7,305.3,24.4,305.3,24z"/>
		</g>
	</g>
</g>
</svg>
