<?xml version="1.0" encoding="UTF-8"?>
<svg width="15px" height="18px" viewBox="0 0 15 18" version="1.1" xmlns="http://www.w3.org/2000/svg" xmlns:xlink="http://www.w3.org/1999/xlink">
    <!-- Generator: Sketch 51.3 (57544) - http://www.bohemiancoding.com/sketch -->
    <title>Shape</title>
    <desc>Created with Sketch.</desc>
    <defs></defs>
    <g id="V5" stroke="none" stroke-width="1" fill="none" fill-rule="evenodd">
        <g id="Login" transform="translate(-63.000000, -293.000000)" fill="#12C3F4" fill-rule="nonzero">
            <g id="Group-2" transform="translate(63.000000, 293.000000)">
                <path d="M7.47612156,0 C7.39797395,0 7.31982634,0 7.24167873,0 C4.08972504,0.104196816 1.66714906,2.78726483 1.66714906,5.93921852 L1.66714906,7.81476122 L1.53690304,7.81476122 C0.677279305,7.81476122 0,8.49204052 0,9.35166425 L0,16.463097 C0,17.3227207 0.677279305,18 1.53690304,18 L13.3371925,18 C14.1968162,18 14.8740955,17.3227207 14.8740955,16.463097 L14.8740955,9.35166425 C14.8740955,8.49204052 14.1968162,7.81476122 13.3371925,7.81476122 L13.2850941,7.81476122 L13.2850941,5.7829233 C13.2850941,2.60492041 10.6801737,0 7.47612156,0 Z M8.57018813,14.6917511 C8.59623734,14.8740955 8.46599132,15.0303907 8.28364689,15.0303907 L7.42402315,15.0303907 L6.56439942,15.0303907 C6.38205499,15.0303907 6.25180897,14.8740955 6.27785818,14.6917511 L6.61649783,13.0767004 C6.30390738,12.7901592 6.09551375,12.3733719 6.17366136,11.9044863 C6.25180897,11.357453 6.72069465,10.9146165 7.26772793,10.8364689 C7.31982634,10.8364689 7.37192475,10.8364689 7.42402315,10.8364689 C8.12735166,10.8364689 8.70043415,11.4095514 8.70043415,12.1128799 C8.70043415,12.5036179 8.51808973,12.8683068 8.23154848,13.1027496 L8.57018813,14.6917511 Z M10.7322721,7.81476122 L4.19392185,7.81476122 L4.19392185,5.88712012 C4.19392185,4.19392185 5.44428365,2.68306802 7.13748191,2.52677279 C7.24167873,2.52677279 7.34587554,2.50072359 7.45007236,2.50072359 C9.24746744,2.50072359 10.7322721,3.95947902 10.7322721,5.7829233 L10.7322721,7.81476122 Z" id="Shape"></path>
            </g>
        </g>
    </g>
</svg>