<?xml version="1.0" encoding="UTF-8"?>
<svg width="10px" height="10px" viewBox="0 0 10 10" version="1.1" xmlns="http://www.w3.org/2000/svg" xmlns:xlink="http://www.w3.org/1999/xlink">
    <!-- Generator: Sketch 51.3 (57544) - http://www.bohemiancoding.com/sketch -->
    <title>Shape</title>
    <desc>Created with Sketch.</desc>
    <defs></defs>
    <g id="V5" stroke="none" stroke-width="1" fill="none" fill-rule="evenodd">
        <g id="My-Activities-Copy" transform="translate(-32.000000, -109.000000)" fill="#12C3F4" fill-rule="nonzero">
            <g id="Group-2" transform="translate(32.000000, 107.000000)">
                <path d="M9.50777657,11.1084155 L7.12776042,8.63307938 C7.73970439,7.90562792 8.0749921,6.99034512 8.0749921,6.03749605 C8.0749921,3.81125584 6.26373626,2 4.03749605,2 C1.81125584,2 0,3.81125584 0,6.03749605 C0,8.26373626 1.81125584,10.0749921 4.03749605,10.0749921 C4.87325773,10.0749921 5.66969771,9.82291191 6.3506302,9.34438086 L8.74872731,11.8385002 C8.84896254,11.9425973 8.9837798,12 9.12825194,12 C9.26500018,12 9.39472668,11.9478636 9.49320647,11.8530703 C9.7024541,11.6517221 9.70912474,11.3178387 9.50777657,11.1084155 Z M4.03749605,3.05325984 C5.68303901,3.05325984 7.02173226,4.39195309 7.02173226,6.03749605 C7.02173226,7.68303901 5.68303901,9.02173226 4.03749605,9.02173226 C2.39195309,9.02173226 1.05325984,7.68303901 1.05325984,6.03749605 C1.05325984,4.39195309 2.39195309,3.05325984 4.03749605,3.05325984 Z" id="Shape"></path>
            </g>
        </g>
    </g>
</svg>