<?xml version="1.0" encoding="UTF-8"?>
<svg width="13px" height="12px" viewBox="0 0 13 12" version="1.1" xmlns="http://www.w3.org/2000/svg" xmlns:xlink="http://www.w3.org/1999/xlink">
    <!-- Generator: Sketch 51.3 (57544) - http://www.bohemiancoding.com/sketch -->
    <title>Shape</title>
    <desc>Created with Sketch.</desc>
    <defs></defs>
    <g id="V5" stroke="none" stroke-width="1" fill="none" fill-rule="evenodd">
        <g id="Signup" transform="translate(-143.000000, -569.000000)" fill="#FFFFFF" fill-rule="nonzero">
            <g id="Group-4" transform="translate(32.000000, 552.000000)">
                <g id="Group-12" transform="translate(111.000000, 15.000000)">
                    <path d="M7.54472727,12.8027036 L1.17886957,12.8027036 L1.17886957,10.7986324 C1.18029249,9.82252964 1.97105929,9.03176285 2.94716206,9.03033992 L5.26479842,9.03033992 L5.38268775,9.03033992 C7.31886166,9.03835573 8.8952253,7.47541502 8.90324111,5.53902767 C8.91125692,3.6026166 7.34831621,2.02672727 5.41192885,2.01847431 C3.4755415,2.01022134 1.89962846,3.57361265 1.89137549,5.50978656 C1.8878419,6.37248221 2.20235573,7.20617391 2.77505929,7.85147036 C1.21541502,7.94391304 -0.0014229249,9.23640316 2.35209191e-16,10.7986324 L2.35209191e-16,13.3921265 C2.35209191e-16,13.7177391 0.263833992,13.9815494 0.589422925,13.9815494 L7.54472727,13.9815494 C7.87033992,13.9815494 8.1341502,13.7177154 8.1341502,13.3921265 C8.1341502,13.0665375 7.87033992,12.8027036 7.54472727,12.8027036 Z M5.38268775,3.23033202 C6.65964427,3.26687747 7.66520158,4.3313913 7.62865613,5.60832411 C7.5944585,6.80841897 6.64735968,7.78286166 5.44871146,7.85147036 L5.26479842,7.85147036 C3.98997628,7.77131225 3.02141502,6.67283794 3.10157312,5.39801581 C3.17750988,4.1896917 4.17222925,3.24449012 5.38268775,3.23033202 Z M10.374,11.3880791 L10.374,12.5669249 C10.374,12.8925375 10.110166,13.1563715 9.78457708,13.1563715 C9.45896443,13.1563715 9.19515415,12.8925375 9.19515415,12.5669486 L9.19515415,11.3880791 L8.01626087,11.3880791 C7.69064822,11.3880791 7.42683794,11.1242451 7.42683794,10.7986561 C7.42683794,10.4730672 7.69067194,10.2092332 8.01626087,10.2092332 L9.19515415,10.2092332 L9.19515415,9.03033992 C9.19515415,8.70472727 9.45898814,8.440917 9.78457708,8.440917 C10.110166,8.440917 10.374,8.70475099 10.374,9.03033992 L10.374,10.2092332 L11.5528458,10.2092332 C11.8784585,10.2092332 12.1422688,10.4730672 12.1422688,10.7986561 C12.1422688,11.1242451 11.8784585,11.3880791 11.5528696,11.3880791 L10.374,11.3880791 Z" id="Shape"></path>
                </g>
            </g>
        </g>
    </g>
</svg>