<?xml version="1.0" encoding="UTF-8"?>
<svg width="16px" height="16px" viewBox="0 0 16 16" version="1.1" xmlns="http://www.w3.org/2000/svg" xmlns:xlink="http://www.w3.org/1999/xlink">
    <!-- Generator: Sketch 51.3 (57544) - http://www.bohemiancoding.com/sketch -->
    <title>rocket-ship</title>
    <desc>Created with Sketch.</desc>
    <defs></defs>
    <g id="V5" stroke="none" stroke-width="1" fill="none" fill-rule="evenodd">
        <g id="My-Activities---options" transform="translate(-30.000000, -475.000000)" fill-rule="nonzero">
            <g id="Group-23" transform="translate(0.000000, 408.000000)">
                <g id="Group-20" transform="translate(30.000000, 64.000000)">
                    <g id="rocket-ship" transform="translate(0.000000, 3.000000)">
                        <path d="M4.85949237,11.1305702 C4.14419845,10.4171913 3.07857897,10.3128316 2.44623897,10.9427545 C2.09787585,11.2899453 1.7231187,12.0041703 1.52664261,12.7092822 C1.31229583,13.4785282 1.34148147,14.1026249 1.62485024,14.38504 C1.90875198,14.6678132 2.53581395,14.6970528 3.30829439,14.4834911 C4.01618694,14.2877856 4.73319475,13.9143713 5.08177147,13.5672067 C5.70766247,12.9429435 5.5827607,11.8509086 4.85949237,11.1305702 Z M5.32039496,13.8066266 C4.92609089,14.1993333 4.15825977,14.5992161 3.39836758,14.8092976 C2.51998431,15.0521374 1.78101584,15.0176797 1.38626807,14.624501 C0.991489748,14.2310513 0.957030047,13.4941757 1.20101936,12.6185488 C1.41203044,11.8612739 1.8135172,11.0961066 2.20764763,10.7033026 C2.98344181,9.9304738 4.26017963,10.0554951 5.09807,10.8911047 C5.9433758,11.7330242 6.09245547,13.0365741 5.32039496,13.8066266 Z" id="Shape" fill="#12C3F4"></path>
                        <path d="M7.19649557,4.39459155 C7.18559881,4.40698458 7.17298424,4.42138574 7.15874076,4.43769422 C7.1013815,4.50336939 7.019095,4.59826861 6.91895517,4.71424625 C6.69957306,4.96832516 6.41593986,5.29870022 6.12100234,5.64391955 C5.36800758,6.52528705 4.67090172,7.35111287 4.1917614,7.93291004 C3.9621193,8.17014923 3.83805309,8.39474102 3.78754061,8.6047921 C3.77044036,8.67590177 3.76343765,8.73958729 3.76407219,8.79215268 C3.76427939,8.8093168 3.76531983,8.82328304 3.76661823,8.83214832 C3.76416065,8.82312184 3.76204668,8.81668797 3.75818038,8.80800994 C3.75287092,8.79612282 3.75287092,8.79612282 3.73591279,8.77167619 C3.72188137,8.75500705 3.72188137,8.75500705 3.69046537,8.73242015 C3.64205902,8.70895621 3.64205902,8.70895621 3.56613941,8.71349249 L3.60478873,8.87802817 L3.48659331,8.99884043 C3.05299309,8.57463214 2.62979827,8.26740626 2.17912239,8.02733396 C2.00129967,7.93260888 1.82335654,7.85013824 1.61730317,7.76430162 C1.50664887,7.71820583 1.15350606,7.57826252 1.11026084,7.56060565 C0.794669125,7.43175069 0.593862498,7.32858724 0.411913744,7.18828309 C-0.0638687514,6.8215317 -0.0500501026,6.31578621 0.375766896,5.81104936 C0.736069998,5.38396859 1.39027646,4.95025387 2.20098609,4.58844726 C3.97718716,3.7957574 5.99688036,3.53048359 7.19111063,4.07163101 L7.90383554,4.39459155 L7.19649557,4.39459155 Z M2.33874631,4.89713021 C1.57048355,5.23999347 0.956235197,5.64721744 0.634132752,6.02901754 C0.321296508,6.39983407 0.31348805,6.68561401 0.618307002,6.92058015 C0.770804972,7.03817423 0.948279729,7.12935105 1.23803638,7.24765764 C1.27862853,7.26423127 1.63330508,7.40478238 1.74728955,7.45226543 C1.96253046,7.54192934 2.14987636,7.62875786 2.33804593,7.72899464 C2.72530456,7.93528496 3.09336134,8.18818841 3.46177095,8.51397445 C3.5276972,8.25016981 3.67940009,7.97754348 3.93516001,7.71276255 C4.4157318,7.12935073 5.11204973,6.30449027 5.86399766,5.42434806 C6.1593041,5.07869691 6.44331886,4.74787742 6.66310293,4.49333298 C6.72862592,4.41744707 6.78656562,4.35051518 6.83498894,4.29476382 C5.72045848,3.92078598 3.92783347,4.18794627 2.33874631,4.89713021 Z M3.72298416,8.75721591 L3.94277813,8.97224907 L3.64343805,9.04256385 C3.56731695,9.04711649 3.56731695,9.04711649 3.51869077,9.0235499 C3.48704613,9.00080105 3.48704613,9.00080105 3.47276911,8.98385171 C3.45529535,8.95866794 3.45529535,8.95866794 3.44941059,8.94557541 C3.44474228,8.93509724 3.44173267,8.92593751 3.43915697,8.91626728 C3.43626999,8.90542837 3.43400942,8.89377314 3.43215818,8.88113315 C3.42860526,8.85687447 3.42645172,8.82796662 3.42606865,8.79623288 C3.42509957,8.71595448 3.43517181,8.62435334 3.45888193,8.5257572 C3.45982594,8.52183161 3.46078893,8.51790401 3.46177095,8.51397445 C3.54873662,8.59087852 3.63572195,8.67184383 3.72298416,8.75721591 Z M11.5122386,9.81814819 C11.2582409,10.0226337 10.9272115,10.2876975 10.5808536,10.5637717 C9.70169361,11.2645304 8.87593632,11.9154174 8.29265326,12.3648504 C8.03355565,12.5981463 7.76804803,12.7386675 7.51149183,12.8026229 C7.82474186,13.135975 8.06906762,13.469944 8.26878984,13.8213264 C8.36796134,13.9958044 8.4537579,14.1696061 8.5420937,14.36903 C8.58925348,14.4754963 8.72822902,14.8057279 8.74316864,14.8401975 C8.85951056,15.1086292 8.94879172,15.271821 9.06443173,15.4117232 C9.29615338,15.692162 9.58691432,15.6832184 9.95931702,15.3899807 C10.3405871,15.0897605 10.7483446,14.5192845 11.0929865,13.8064855 C11.8044432,12.3350288 12.0787022,10.6788411 11.7160833,9.65363019 C11.6593296,9.69959024 11.590583,9.75507563 11.5122386,9.81814819 Z M7.4832941,12.809353 C7.38585071,12.8315774 7.29547835,12.8412116 7.21643624,12.8406462 C7.18526953,12.8404233 7.15692975,12.8385683 7.13322792,12.8354206 C7.12093324,12.8337879 7.10962816,12.8317829 7.09914789,12.8292108 C7.08978501,12.8269131 7.08093101,12.8242215 7.07074221,12.8200008 C7.05795145,12.814672 7.05795145,12.814672 7.03264098,12.7982507 C7.01529555,12.7846198 7.01529555,12.7846198 6.99104818,12.752915 C6.96513078,12.7025664 6.96513078,12.7025664 6.97022944,12.6219376 L7.04059812,12.3404629 L7.2507355,12.540518 C7.34267377,12.6280452 7.42944689,12.7153129 7.51149183,12.8026229 C7.50208029,12.804969 7.49268079,12.8072121 7.4832941,12.809353 Z M11.615662,8.63901249 L11.936908,9.30505416 C12.4732421,10.4170392 12.1979565,12.2977038 11.3973093,13.9536271 C11.0322556,14.7086424 10.5961669,15.3187555 10.1684383,15.6555581 C9.66516757,16.051844 9.16750865,16.0671516 8.80386883,15.6270602 C8.66349341,15.4572329 8.56096234,15.2698224 8.43301806,14.974621 C8.41687888,14.9373836 8.27863135,14.6088819 8.23302905,14.5059317 C8.1489464,14.3161097 8.06799172,14.1521163 7.9749153,13.9883618 C7.73908102,13.5734454 7.43642591,13.184016 7.01765887,12.7853411 L7.13419718,12.6629296 L7.29816493,12.7039215 C7.30324707,12.6234819 7.30324707,12.6234819 7.27743157,12.5733389 C7.25334511,12.5418476 7.25334511,12.5418476 7.23627823,12.5284454 C7.21170075,12.5125034 7.21170075,12.5125034 7.20010892,12.5077072 C7.19171027,12.5042281 7.18556776,12.5023608 7.17971438,12.5009243 C7.18697391,12.5015623 7.20131941,12.5025012 7.21885425,12.5026267 C7.27205526,12.5030073 7.33639684,12.4961481 7.40812843,12.4797879 C7.61881491,12.4317355 7.84380326,12.3152541 8.07084523,12.1096945 C8.66291444,11.652909 9.48970938,11.0012275 10.3701605,10.2994396 C10.716106,10.0236942 11.0467104,9.7589706 11.3002614,9.55484476 C11.4164344,9.46131752 11.5113434,9.38460133 11.5769864,9.3311729 C11.5913888,9.31945043 11.6043033,9.30891336 11.615662,9.29961732 L11.615662,8.63901249 Z" id="Shape" fill="#12C3F4"></path>
                        <path d="M15.9170704,0.0863098592 C16.287831,0.43684507 15.7420282,5.64101408 12.1850141,9.1743662 C9.98276056,11.3623099 8.52197183,12.2092958 8.1724507,12.512507 C7.20569014,12.9508169 6.56428169,13.1864225 4.6484507,11.2824789 C2.73707042,9.38343662 3.10484507,8.85690141 3.52884507,7.94726761 C3.84338028,7.59425352 4.71453521,6.12760563 6.91729577,3.93915493 C10.4727887,0.406253521 15.5290704,-0.257802817 15.9170704,0.0863098592 Z" id="Shape" fill="#12C3F4"></path>
                        <path d="M11.4706479,4.52484507 C12.2372958,5.29295775 12.2372958,6.53825352 11.4706479,7.30687324 C10.7035493,8.07498592 9.46067606,8.07498592 8.69352113,7.30687324 C7.92687324,6.53825352 7.92687324,5.29295775 8.69352113,4.52484507 C9.46067606,3.75622535 10.7035493,3.75622535 11.4706479,4.52484507 Z" id="Shape" fill="#FFFFFF"></path>
                        <path d="M10.7829296,5.22191549 C11.1694648,5.60597183 11.1694648,6.22861972 10.7829296,6.61267606 C10.3969014,6.99673239 9.76980282,6.99673239 9.3828169,6.61267606 C8.99678873,6.22861972 8.99678873,5.60597183 9.3828169,5.22191549 C9.77025352,4.83785915 10.3969014,4.83785915 10.7829296,5.22191549 Z" id="Shape" fill="#12C3F4"></path>
                    </g>
                </g>
            </g>
        </g>
    </g>
</svg>