<?xml version="1.0" encoding="UTF-8"?>
<svg width="17px" height="15px" viewBox="0 0 17 15" version="1.1" xmlns="http://www.w3.org/2000/svg" xmlns:xlink="http://www.w3.org/1999/xlink">
    <!-- Generator: Sketch 51.3 (57544) - http://www.bohemiancoding.com/sketch -->
    <title>Shape</title>
    <desc>Created with Sketch.</desc>
    <defs></defs>
    <g id="V5" stroke="none" stroke-width="1" fill="none" fill-rule="evenodd">
        <g id="My-Activities" transform="translate(-172.000000, -608.000000)" fill="#9B9B9B" fill-rule="nonzero">
            <g id="Group-9" transform="translate(0.000000, 590.000000)">
                <path d="M188.162963,23.4661722 C188.153814,22.910816 187.846972,22.4009516 187.354815,22.1233095 L180.243111,18.0552255 C180.116053,17.9815915 179.958014,17.9815915 179.830955,18.0552255 L172.808148,22.1233095 C172.31599,22.4009516 172.009149,22.910816 172,23.4661722 L172,31.3653645 C172,32.2378852 172.72364,32.945203 173.616296,32.945203 L186.546666,32.945203 C187.439322,32.945203 188.162963,32.2378852 188.162963,31.3653645 L188.162963,23.4661722 Z M179.871363,27.2814821 L173.971881,23.6873496 C173.84921,23.6162025 173.774004,23.4871081 173.774004,23.3476843 C173.774004,23.2082606 173.84921,23.0791662 173.971881,23.0080191 L179.863281,19.6350639 C179.99034,19.56143 180.148379,19.56143 180.275437,19.6350639 L186.166837,23.0080191 C186.289508,23.0791662 186.364714,23.2082606 186.364714,23.3476843 C186.364714,23.4871081 186.289508,23.6162025 186.166837,23.6873496 L180.275437,27.2893813 C180.148976,27.3575064 179.994935,27.3544951 179.871363,27.2814821 Z" id="Shape"></path>
            </g>
        </g>
    </g>
</svg>