<?xml version="1.0" encoding="UTF-8"?>
<svg width="16px" height="16px" viewBox="0 0 16 16" version="1.1" xmlns="http://www.w3.org/2000/svg" xmlns:xlink="http://www.w3.org/1999/xlink">
    <!-- Generator: Sketch 51.3 (57544) - http://www.bohemiancoding.com/sketch -->
    <title>Shape</title>
    <desc>Created with Sketch.</desc>
    <defs></defs>
    <g id="V5" stroke="none" stroke-width="1" fill="none" fill-rule="evenodd">
        <g id="Questions---enrolled-Copy-2" transform="translate(-30.000000, -467.000000)" fill="#12C3F4" fill-rule="nonzero">
            <g id="Group-29" transform="translate(0.000000, 356.000000)">
                <g id="Group-28" transform="translate(30.000000, 111.000000)">
                    <path d="M5.33546589,8.33942137 L4.80317915,10.9347129 C4.77483252,11.0890446 4.91026642,11.2244785 5.06459808,11.1961319 L7.65988963,10.6638451 C7.69768514,10.6417977 7.73548065,10.6229 7.77327615,10.6040022 L13.3512632,5.02286554 C13.395358,4.97877078 13.395358,4.90947901 13.3512632,4.86538425 L11.1339267,2.64489816 C11.089832,2.6008034 11.0205402,2.6008034 10.9764455,2.64489816 L5.3984584,8.22603485 C5.37641102,8.26383035 5.35751327,8.30162586 5.33546589,8.33942137 Z M14.0788267,9.59927164 C14.2552058,9.59927164 14.4000886,9.74100479 14.4000886,9.92053346 L14.4000886,15.1993061 C14.4000886,15.6402537 14.0410312,15.999311 13.6000836,15.999311 L0.80000492,15.999311 C0.359057326,15.999311 0,15.6402537 0,15.1993061 L0,2.39922735 C0,1.95827976 0.359057326,1.59922243 0.80000492,1.59922243 L5.27877262,1.59922243 C5.45830129,1.59922243 5.60003444,1.74410522 5.60003444,1.92048425 L5.60003444,2.87797046 C5.60003444,3.05749912 5.45515166,3.19923227 5.27877262,3.19923227 L1.60000984,3.19923227 L1.60000984,14.3993012 L12.7969291,14.3993012 L12.7969291,9.92053346 C12.7969291,9.74100479 12.9418119,9.59927164 13.1181909,9.59927164 L14.0788267,9.59927164 Z M15.8363179,1.74725484 C16.053642,1.96457901 16.053642,2.32048671 15.8363179,2.53781088 L14.6678067,3.70632201 C14.6048142,3.76931452 14.5040262,3.76931452 14.4410337,3.70632201 L12.292989,1.5582773 C12.2299965,1.49528479 12.2299965,1.39449677 12.292989,1.33150425 L13.4615001,0.162993128 C13.6788243,-0.0543310428 14.034732,-0.0543310428 14.2520562,0.162993128 L15.8363179,1.74725484 Z" id="Shape"></path>
                </g>
            </g>
        </g>
    </g>
</svg>