<?xml version="1.0" encoding="UTF-8"?>
<svg width="14px" height="14px" viewBox="0 0 14 14" version="1.1" xmlns="http://www.w3.org/2000/svg" xmlns:xlink="http://www.w3.org/1999/xlink">
    <!-- Generator: Sketch 51.3 (57544) - http://www.bohemiancoding.com/sketch -->
    <title>Shape</title>
    <desc>Created with Sketch.</desc>
    <defs></defs>
    <g id="V5" stroke="none" stroke-width="1" fill="none" fill-rule="evenodd">
        <g id="My-Activities----no-unenroll" transform="translate(-326.000000, -474.000000)" fill="#9B9B9B" fill-rule="nonzero">
            <g id="Group-19" transform="translate(0.000000, 454.000000)">
                <path d="M334.622692,27.0321215 L339.590467,22.0643458 C340.047757,21.6070561 340.047757,20.8656449 339.590467,20.4084206 C339.133178,19.9511308 338.391832,19.9511308 337.934542,20.4084206 L332.966701,25.3762617 L327.99886,20.4083551 C327.54157,19.9510654 326.800224,19.9510654 326.342935,20.4083551 C325.88571,20.8656449 325.88571,21.6070561 326.342935,22.0642804 L331.310776,27.0320561 L326.342935,31.9998972 C325.88571,32.4571869 325.88571,33.1985981 326.342935,33.6558224 C326.800224,34.1131121 327.54157,34.1131121 327.99886,33.6558224 L332.966701,28.6879813 L337.934542,33.6558224 C338.391766,34.1131121 339.133178,34.1131121 339.590467,33.6558224 C340.047757,33.1985327 340.047757,32.4571869 339.590467,31.9998972 L334.622692,27.0321215 Z" id="Shape"></path>
            </g>
        </g>
    </g>
</svg>