<?xml version="1.0" encoding="UTF-8"?>
<svg width="12px" height="12px" viewBox="0 0 12 12" version="1.1" xmlns="http://www.w3.org/2000/svg" xmlns:xlink="http://www.w3.org/1999/xlink">
    <!-- Generator: Sketch 51.3 (57544) - http://www.bohemiancoding.com/sketch -->
    <title>Shape Copy 2</title>
    <desc>Created with Sketch.</desc>
    <defs></defs>
    <g id="V5" stroke="none" stroke-width="1" fill="none" fill-rule="evenodd">
        <g id="My-Activities-Copy" transform="translate(-66.000000, -491.000000)" fill="#12C3F4" fill-rule="nonzero">
            <g id="Group-5" transform="translate(0.000000, 170.000000)">
                <g id="Group-3" transform="translate(66.000000, 320.000000)">
                    <path d="M9.75,2.5 L8.35714286,2.5 L8.35714286,1.75 C8.35714286,1.33535109 8.04518333,1 7.66071429,1 C7.27624524,1 6.96428571,1.33535109 6.96428571,1.75 L6.96428571,2.5 L4.17857143,2.5 L4.17857143,1.75 C4.17857143,1.33535109 3.8666119,1 3.48214286,1 C3.09767382,1 2.78571429,1.33535109 2.78571429,1.75 L2.78571429,2.5 L1.39285714,2.5 C0.623919059,2.5 0,3.17191283 0,4 L0,11.5 C0,12.3280872 0.623919059,13 1.39285714,13 L9.75,13 C10.5189381,13 11.1428571,12.3280872 11.1428571,11.5 L11.1428571,4 C11.1428571,3.17130751 10.5189381,2.5 9.75,2.5 Z M9.75,11.5 L1.39285714,11.5 L1.39285714,5.12469734 L9.75,5.12469734 L9.75,11.5 Z" id="Shape-Copy-2"></path>
                </g>
            </g>
        </g>
    </g>
</svg>