<?xml version="1.0" encoding="UTF-8"?>
<svg width="16px" height="15px" viewBox="0 0 16 15" version="1.1" xmlns="http://www.w3.org/2000/svg" xmlns:xlink="http://www.w3.org/1999/xlink">
    <!-- Generator: Sketch 51.3 (57544) - http://www.bohemiancoding.com/sketch -->
    <title>Shape</title>
    <desc>Created with Sketch.</desc>
    <defs></defs>
    <g id="V5" stroke="none" stroke-width="1" fill="none" fill-rule="evenodd">
        <g id="My-Activities----introduction" transform="translate(-314.000000, -595.000000)" fill="#FFFFFF" fill-rule="nonzero">
            <g id="Group" transform="translate(300.000000, 580.000000)">
                <g id="align-left" transform="translate(14.000000, 15.000000)">
                    <path d="M0.500014648,8.42105263 L15.4999854,8.42105263 C15.7763598,8.42105263 16,8.13856142 16,7.78945888 L16,6.52633059 C16,6.17722806 15.7763598,5.89473684 15.4999854,5.89473684 L0.500014648,5.89473684 C0.223640188,5.89479605 0,6.17728727 0,6.52633059 L0,7.78945888 C0,8.13862063 0.223640188,8.42105263 0.500014648,8.42105263 Z M0.500014648,2.52631579 C0.223640188,2.52631579 0,2.24388379 0,1.89472204 L0,0.63159375 C0,0.282550424 0.223640188,5.92100637e-05 0.500014648,0 L15.4999854,0 C15.7763598,0 16,0.282491214 16,0.63159375 L16,1.89472204 C16,2.24382458 15.7763598,2.52631579 15.4999854,2.52631579 L0.500014648,2.52631579 Z M0.500014648,14.3157895 C0.223640188,14.3157895 0,14.0333575 0,13.6841957 L0,12.4210674 C0,12.0720241 0.223640188,11.7895329 0.500014648,11.7894737 L15.4999854,11.7894737 C15.7763598,11.7894737 16,12.0719649 16,12.4210674 L16,13.6841957 C16,14.0332983 15.7763598,14.3157895 15.4999854,14.3157895 L0.500014648,14.3157895 Z" id="Shape"></path>
                </g>
            </g>
        </g>
    </g>
</svg>