<?xml version="1.0" encoding="UTF-8"?>
<svg width="16px" height="16px" viewBox="0 0 16 16" version="1.1" xmlns="http://www.w3.org/2000/svg" xmlns:xlink="http://www.w3.org/1999/xlink">
    <!-- Generator: Sketch 51.3 (57544) - http://www.bohemiancoding.com/sketch -->
    <title>Shape</title>
    <desc>Created with Sketch.</desc>
    <defs></defs>
    <g id="V5" stroke="none" stroke-width="1" fill="none" fill-rule="evenodd">
        <g id="Questions---enrolled-Copy-2" transform="translate(-30.000000, -554.000000)" fill="#12C3F4" fill-rule="nonzero">
            <g id="Group-29" transform="translate(0.000000, 356.000000)">
                <g id="Group-26" transform="translate(30.000000, 198.000000)">
                    <path d="M5.15657144,8 C5.15657144,9.4262857 4.00457142,10.5782857 2.57828569,10.5782857 C1.15199999,10.5782857 0,9.4262857 0,8 C0,6.5737143 1.15199999,5.42171428 2.57828569,5.42171428 C4.00457142,5.42171428 5.15657144,6.5737143 5.15657144,8 Z M15.2228571,2.57828569 C15.2228571,4.00457142 14.0708571,5.16571428 12.6445714,5.16571428 C11.2182857,5.16571428 10.0662857,4.00457142 10.0662857,2.57828569 C10.0662857,1.16114286 11.2182857,0 12.6445714,0 C14.0708571,0 15.2228571,1.16114286 15.2228571,2.57828569 Z M15.2228571,13.4217143 C15.2228571,14.848 14.0708571,16 12.6445714,16 C11.2182857,16 10.0662857,14.848 10.0662857,13.4217143 C10.0662857,11.9954286 11.2182857,10.8434286 12.6445714,10.8434286 C14.0708571,10.8434286 15.2228571,11.9954286 15.2228571,13.4217143 Z M14.9668572,8 C14.9668572,4.72032444 12.3102163,2.0662857 9.03314286,2.0662857 C5.7482261,2.0662857 3.0902857,4.71902465 3.0902857,8 C3.0902857,11.2829444 5.75019835,13.9428571 9.03314286,13.9428571 C12.3082456,13.9428571 14.9668572,11.2816416 14.9668572,8 Z M15.9908572,8 C15.9908572,11.8469569 12.8740097,14.9668571 9.03314286,14.9668571 C5.18465876,14.9668571 2.06628569,11.848484 2.06628569,8 C2.06628569,4.15303555 5.18313505,1.0422857 9.03314286,1.0422857 C12.8755314,1.0422857 15.9908572,4.1545601 15.9908572,8 Z" id="Shape"></path>
                </g>
            </g>
        </g>
    </g>
</svg>