<?xml version="1.0" encoding="UTF-8"?>
<svg width="14px" height="13px" viewBox="0 0 14 13" version="1.1" xmlns="http://www.w3.org/2000/svg" xmlns:xlink="http://www.w3.org/1999/xlink">
    <!-- Generator: Sketch 51.3 (57544) - http://www.bohemiancoding.com/sketch -->
    <title>Shape</title>
    <desc>Created with Sketch.</desc>
    <defs></defs>
    <g id="V5" stroke="none" stroke-width="1" fill="none" fill-rule="evenodd">
        <g id="My-Activities----no-unenroll" transform="translate(-30.000000, -605.000000)" fill="#12C3F4" fill-rule="nonzero">
            <g id="Group-19" transform="translate(0.000000, 454.000000)">
                <g id="Group-18" transform="translate(30.000000, 150.000000)">
                    <path d="M13.7100069,7.04493682 L0.710318093,1.04508042 C0.503323048,0.951082675 0.25632896,1.00708133 0.112332406,1.18507707 C-0.0326641232,1.36307281 -0.0376640035,1.61606676 0.100332693,1.79906238 L4.37523037,7.49892595 L0.100332693,13.1987895 C-0.0376640035,13.3817851 -0.0326641232,13.6357791 0.11133243,13.8127748 C0.208330109,13.9337719 0.353326638,13.9987704 0.50032312,13.9987704 C0.57132142,13.9987704 0.642319721,13.9837707 0.709318117,13.9527715 L13.709007,7.95291508 C13.8870027,7.87091705 14,7.69392128 14,7.49892595 C14,7.30393062 13.8870027,7.12693485 13.7100069,7.04493682 Z" id="Shape"></path>
                </g>
            </g>
        </g>
    </g>
</svg>