<?xml version="1.0" encoding="UTF-8"?>
<svg width="16px" height="16px" viewBox="0 0 16 16" version="1.1" xmlns="http://www.w3.org/2000/svg" xmlns:xlink="http://www.w3.org/1999/xlink">
    <!-- Generator: Sketch 51.3 (57544) - http://www.bohemiancoding.com/sketch -->
    <title>Shape</title>
    <desc>Created with Sketch.</desc>
    <defs></defs>
    <g id="V5" stroke="none" stroke-width="1" fill="none" fill-rule="evenodd">
        <g id="Journal---learners-journal" transform="translate(-314.000000, -544.000000)" fill="#FFFFFF" fill-rule="nonzero">
            <g id="Group-33" transform="translate(300.000000, 530.000000)">
                <path d="M29.1316879,20.8836823 L23.1162526,20.8836823 L23.1162526,14.8682145 C23.1162526,14.5941853 22.7441467,14 21.9999675,14 C21.2557882,14 20.8836823,14.5942179 20.8836823,14.8682145 L20.8836823,20.8837149 L14.8682145,20.8837149 C14.5942179,20.8836823 14,21.2557882 14,21.9999349 C14,22.7440816 14.5942179,23.1162201 14.8682145,23.1162201 L20.8837149,23.1162201 L20.8837149,29.1317204 C20.8837149,29.4056845 21.2557882,29.9999349 22,29.9999349 C22.7442118,29.9999349 23.1162851,29.4056845 23.1162851,29.1317204 L23.1162851,23.1162201 L29.1317855,23.1162201 C29.4057496,23.1162201 30,22.7441467 30,21.9999349 C30,21.2557232 29.4056845,20.8836823 29.1316879,20.8836823 Z" id="Shape"></path>
            </g>
        </g>
    </g>
</svg>