<?xml version="1.0" encoding="UTF-8"?>
<svg width="18px" height="16px" viewBox="0 0 18 16" version="1.1" xmlns="http://www.w3.org/2000/svg" xmlns:xlink="http://www.w3.org/1999/xlink">
    <!-- Generator: Sketch 51.3 (57544) - http://www.bohemiancoding.com/sketch -->
    <title>Shape</title>
    <desc>Created with Sketch.</desc>
    <defs></defs>
    <g id="V5" stroke="none" stroke-width="1" fill="none" fill-rule="evenodd">
        <g id="Questions---enrolled-Copy-2" transform="translate(-30.000000, -510.000000)" fill="#12C3F4" fill-rule="nonzero">
            <g id="Group-29" transform="translate(0.000000, 356.000000)">
                <g id="Group-27" transform="translate(30.000000, 154.000000)">
                    <path d="M9.00018116,5.25598841 C9.40278318,5.25598841 9.72953878,5.582744 9.72953878,5.98534602 C9.72953878,6.38794804 9.40284357,6.71470363 9.00018116,6.71470363 C8.59757914,6.71470363 8.27082355,6.38794804 8.27082355,5.98534602 C8.27082355,5.582744 8.59757914,5.25598841 9.00018116,5.25598841 Z M5.61082409,5.25598841 C6.01348649,5.25598841 6.3401817,5.582744 6.3401817,5.98534602 C6.3401817,6.38794804 6.01348649,6.71470363 5.61082409,6.71470363 C5.20828245,6.71470363 4.88146647,6.38794804 4.88146647,5.98534602 C4.88146647,5.582744 5.20828245,5.25598841 5.61082409,5.25598841 Z M12.3888136,5.25598841 C12.7914156,5.25598841 13.1181712,5.582744 13.1181712,5.98534602 C13.1181712,6.38794804 12.791476,6.71470363 12.3888136,6.71470363 C11.9862116,6.71470363 11.659456,6.38794804 11.659456,5.98534602 C11.659456,5.582744 11.9862116,5.25598841 12.3888136,5.25598841 Z M16.2590346,0 L1.74102578,0 C0.781049128,0 0,0.780988741 0,1.74102578 L0,10.2296663 C0,11.1896429 0.780988741,11.970692 1.74102578,11.970692 L10.8301574,11.970692 L14.512574,15.6531086 C14.652129,15.7926636 14.8386653,15.8667588 15.0284625,15.8667588 C15.1224252,15.8667588 15.2172332,15.8485822 15.3074518,15.8112025 C15.5799192,15.6982783 15.7576994,15.4323931 15.7576994,15.1373408 L15.7576994,11.9706317 L16.2589742,11.9706317 C17.2189509,11.9706317 18,11.1896429 18,10.2296059 L18,1.74096539 C18.0000604,0.780988741 17.2190716,0 16.2590346,0 Z M16.5413452,10.2296663 C16.5413452,10.3852843 16.414713,10.5119164 16.259095,10.5119164 L15.0286437,10.5119164 C14.6448221,10.5119164 14.330929,10.8085388 14.3021243,11.1850535 C14.3002523,11.2009957 14.2990445,13.376508 14.2990445,13.376508 L11.6508206,10.7282237 C11.6480428,10.7254459 11.6451442,10.7228492 11.6423664,10.7200714 C11.6319798,10.7099263 11.6221366,10.7011098 11.612837,10.693199 C11.4844536,10.5806372 11.3167581,10.511856 11.1326977,10.511856 L1.74102578,10.511856 C1.58534736,10.511856 1.45877561,10.3852239 1.45877561,10.2296059 L1.45877561,1.74096539 C1.45877561,1.58528697 1.58540775,1.45871523 1.74102578,1.45871523 L16.259095,1.45871523 C16.414713,1.45871523 16.5413452,1.58534736 16.5413452,1.74096539 L16.5413452,10.2296663 Z" id="Shape" transform="translate(9.000000, 7.933379) scale(-1, 1) translate(-9.000000, -7.933379) "></path>
                </g>
            </g>
        </g>
    </g>
</svg>