<?xml version="1.0" encoding="UTF-8"?>
<svg width="18px" height="14px" viewBox="0 0 18 14" version="1.1" xmlns="http://www.w3.org/2000/svg" xmlns:xlink="http://www.w3.org/1999/xlink">
    <!-- Generator: Sketch 51.3 (57544) - http://www.bohemiancoding.com/sketch -->
    <title>Shape</title>
    <desc>Created with Sketch.</desc>
    <defs></defs>
    <g id="V5" stroke="none" stroke-width="1" fill="none" fill-rule="evenodd">
        <g id="My-Activities" transform="translate(-51.000000, -601.000000)" fill="#12C3F4" fill-rule="nonzero">
            <g id="Group-9" transform="translate(0.000000, 590.000000)">
                <g id="Group-8" transform="translate(51.000000, 11.000000)">
                    <path d="M17.8634348,1.56857968 C17.8893378,1.56857968 17.90784,1.58708188 17.90784,1.61298496 L17.90784,3.23620959 C17.90784,3.26211267 17.8856374,3.28061487 17.8634348,3.28061487 L6.68070391,3.28061487 C6.65480083,3.28061487 6.63629863,3.25841223 6.63629863,3.23620959 L6.63629863,1.61298496 C6.63629863,1.58708188 6.65850127,1.56857968 6.68070391,1.56857968 L17.8634348,1.56857968 Z M1.97603517,2.29797348 L4.28881041,0 L5.29162975,1.01022023 L2.97885451,3.30819371 L1.97233473,4.31101305 L0.969515381,3.30079283 L0,2.33127744 L1.01022023,1.32475766 L1.97603517,2.29797348 Z M17.8634348,6.63629863 C17.8893378,6.63629863 17.90784,6.65480083 17.90784,6.68070391 L17.90784,8.30392854 C17.90784,8.32983162 17.8856374,8.34833383 17.8634348,8.34833383 L6.68070391,8.34833383 C6.65480083,8.34833383 6.63629863,8.32613118 6.63629863,8.30392854 L6.63629863,6.68070391 C6.63629863,6.65480083 6.65850127,6.63629863 6.68070391,6.63629863 L17.8634348,6.63629863 Z M2.60906666,8.59661262 C1.83450557,8.59661262 1.20659975,7.96870679 1.20659975,7.19414571 C1.20659975,6.41958462 1.83450557,5.7916788 2.60906666,5.7916788 C3.38362774,5.7916788 4.01153356,6.41958462 4.01153356,7.19414571 C4.01153356,7.96870679 3.38362774,8.59661262 2.60906666,8.59661262 Z M17.8634348,11.5833576 C17.8893378,11.5833576 17.90784,11.6018598 17.90784,11.6277629 L17.90784,13.2509875 C17.90784,13.2768906 17.8856374,13.2953928 17.8634348,13.2953928 L6.68070391,13.2953928 C6.65480083,13.2953928 6.63629863,13.2731902 6.63629863,13.2509875 L6.63629863,11.6277629 C6.63629863,11.6018598 6.65850127,11.5833576 6.68070391,11.5833576 L17.8634348,11.5833576 Z M2.61646754,13.5584734 C1.83781906,13.5584734 1.20659975,12.927254 1.20659975,12.1486056 C1.20659975,11.3699571 1.83781906,10.7387378 2.61646754,10.7387378 C3.39511602,10.7387378 4.02633533,11.3699571 4.02633533,12.1486056 C4.02633533,12.927254 3.39511602,13.5584734 2.61646754,13.5584734 Z" id="Shape"></path>
                </g>
            </g>
        </g>
    </g>
</svg>