<?xml version="1.0" encoding="UTF-8"?>
<svg width="17px" height="14px" viewBox="0 0 17 14" version="1.1" xmlns="http://www.w3.org/2000/svg" xmlns:xlink="http://www.w3.org/1999/xlink">
    <!-- Generator: Sketch 51.3 (57544) - http://www.bohemiancoding.com/sketch -->
    <title>Mask</title>
    <desc>Created with Sketch.</desc>
    <defs>
        <path d="M3.08562919,1.66790767 C2.31422189,1.66790767 1.66790767,2.31422189 1.66790767,3.08562919 L1.66790767,10.2576322 C1.66790767,11.0290395 2.29337305,11.6753537 3.08562919,11.6753537 L8.33953835,11.6753537 C8.79821296,11.6753537 9.17349218,12.0506329 9.17349218,12.5093075 C9.17349218,12.9679821 8.79821296,13.3432614 8.33953835,13.3432614 L3.08562919,13.3432614 C1.39687267,13.3432614 0,11.9463887 0,10.2367833 L0,3.08562919 C0,1.39687267 1.39687267,0 3.08562919,0 L8.33953835,0 C8.79821296,0 9.17349218,0.375279226 9.17349218,0.833953835 C9.17349218,1.29262844 8.79821296,1.66790767 8.33953835,1.66790767 L3.08562919,1.66790767 Z M16.3454952,6.67163068 C16.3454952,6.90096798 16.2620998,7.10945644 16.095309,7.27624721 L13.0096798,10.3618764 C12.8428891,10.5286672 12.6344006,10.6120625 12.4259121,10.6120625 C12.2174237,10.6120625 12.0089352,10.5286672 11.8421445,10.3618764 C11.5085629,10.0282949 11.5085629,9.50707372 11.8421445,9.17349218 L13.5100521,7.50558451 L5.21221147,7.50558451 C4.75353686,7.50558451 4.37825763,7.13030529 4.37825763,6.67163068 C4.37825763,6.21295607 4.75353686,5.83767684 5.21221147,5.83767684 L13.4892033,5.83767684 L11.8212956,4.16976917 C11.4877141,3.83618764 11.4877141,3.31496649 11.8212956,2.98138496 C12.1548771,2.64780343 12.6760983,2.64780343 13.0096798,2.98138496 L16.095309,6.08786299 C16.2620998,6.23380491 16.3454952,6.44229337 16.3454952,6.67163068 Z" id="path-1"></path>
    </defs>
    <g id="V5" stroke="none" stroke-width="1" fill="none" fill-rule="evenodd">
        <g id="My-Activities---options" transform="translate(-30.000000, -603.000000)">
            <g id="Group-23" transform="translate(0.000000, 408.000000)">
                <g id="Group-24" transform="translate(30.000000, 195.000000)">
                    <g id="Rectangle-14">
                        <mask id="mask-2" fill="white">
                            <use xlink:href="#path-1"></use>
                        </mask>
                        <use id="Mask" fill="#12C3F4" fill-rule="nonzero" xlink:href="#path-1"></use>
                    </g>
                </g>
            </g>
        </g>
    </g>
</svg>